# xmcd
#
# Track frame offsets:
#	150
#	11477
#	21529
#	34206
#	47558
#	61023
#	72688
#	82965
#	92755
#	103857
#	115711
#	127480
#
# Disc length: 1837 seconds
#
# Revision: 0
# Processed by: cddbd v1.4PL0 Copyright (c) Steve Scherf et al.
# Submitted via: dBpowerAMP V4.0
#
DISCID=a5072b0c
DTITLE=Jack Greene  - There goes my everything
DYEAR=1900
DGENRE=
TTITLE0=There goes my everything
TTITLE1=Walking on new grass
TTITLE2=Almost persuaded
TTITLE3=A wound time cant erase
TTITLE4=Think I'll go somewhere and cry myself to sleep
TTITLE5=Ever since my baby went away
TTITLE6=Together again
TTITLE7=The drinks are free and the hurts on me 
TTITLE8=Make the world go away
TTITLE9=here comes my baby back again
TTITLE10=Tender years
TTITLE11=Dont you ever get tired of hurting me 
EXTD=Jack Greene lp there goes my everthing 
EXTT0=
EXTT1=
EXTT2=
EXTT3=
EXTT4=
EXTT5=
EXTT6=
EXTT7=
EXTT8=
EXTT9=
EXTT10=
EXTT11=
PLAYORDER=
